<svg width="42" height="40" viewBox="0 0 42 40" fill="none" xmlns="http://www.w3.org/2000/svg">
<rect width="42" height="40" rx="10" fill="white"/>
<path d="M8 8H32C34.2091 8 36 9.79086 36 12V15.3846V20.9231V28C36 30.2091 34.2091 32 32 32H20H8C5.79086 32 4 30.2091 4 28V17.2308V12C4 9.79086 5.79086 8 8 8Z" fill="#0B1F35"/>
<path d="M42 8C42 4.68629 39.3137 2 36 2C32.6863 2 30 4.68629 30 8V16C30 19.3137 32.6863 22 36 22C39.3137 22 42 19.3137 42 16V8Z" fill="white"/>
<path d="M36 20C38.2091 20 40 18.2091 40 16C40 13.7909 38.2091 12 36 12C33.7909 12 32 13.7909 32 16C32 18.2091 33.7909 20 36 20Z" fill="#0B1F35"/>
<path d="M36 16.7C38.5957 16.7 40.7 14.5957 40.7 12C40.7 9.40426 38.5957 7.3 36 7.3C33.4043 7.3 31.3 9.40426 31.3 12C31.3 14.5957 33.4043 16.7 36 16.7Z" fill="#0B1F35" stroke="white" stroke-width="1.4"/>
<path d="M36 12.7C38.5957 12.7 40.7 10.5957 40.7 8C40.7 5.40426 38.5957 3.3 36 3.3C33.4043 3.3 31.3 5.40426 31.3 8C31.3 10.5957 33.4043 12.7 36 12.7Z" fill="#0B1F35" stroke="white" stroke-width="1.4"/>
<path d="M8 21H11.0769C11.5867 21 12 21.4133 12 21.9231V22.6154V23C12 23.5523 11.5523 24 11 24H9.5H8C7.44772 24 7 23.5523 7 23V22.1538V22C7 21.4477 7.44772 21 8 21Z" fill="white"/>
</svg>
