<svg width="40" height="40" viewBox="0 0 40 40" fill="none" xmlns="http://www.w3.org/2000/svg">
<rect width="40" height="40" rx="10" fill="white"/>
<path d="M14 16H26L29.821 25.8253C31.3505 29.7585 28.4491 34 24.2289 34H15.7711C11.5509 34 8.64946 29.7585 10.179 25.8253L14 16Z" fill="#0B1F35"/>
<path d="M35 17C35 13.6863 32.3137 11 29 11C25.6863 11 23 13.6863 23 17V29C23 32.3137 25.6863 35 29 35C32.3137 35 35 32.3137 35 29V17Z" fill="white"/>
<path d="M29 33C31.2091 33 33 31.2091 33 29C33 26.7909 31.2091 25 29 25C26.7909 25 25 26.7909 25 29C25 31.2091 26.7909 33 29 33Z" fill="#0B1F35"/>
<path d="M29 29.7C31.5957 29.7 33.7 27.5957 33.7 25C33.7 22.4043 31.5957 20.3 29 20.3C26.4043 20.3 24.3 22.4043 24.3 25C24.3 27.5957 26.4043 29.7 29 29.7Z" fill="#0B1F35" stroke="white" stroke-width="1.4"/>
<path d="M29 25.7C31.5957 25.7 33.7 23.5957 33.7 21C33.7 18.4043 31.5957 16.3 29 16.3C26.4043 16.3 24.3 18.4043 24.3 21C24.3 23.5957 26.4043 25.7 29 25.7Z" fill="#0B1F35" stroke="white" stroke-width="1.4"/>
<path d="M29 21.7C31.5957 21.7 33.7 19.5957 33.7 17C33.7 14.4043 31.5957 12.3 29 12.3C26.4043 12.3 24.3 14.4043 24.3 17C24.3 19.5957 26.4043 21.7 29 21.7Z" fill="#0B1F35" stroke="white" stroke-width="1.4"/>
<path d="M25 14H15L12.5974 8.39392C12.3146 7.73405 12.7986 7 13.5165 7H26.4835C27.2014 7 27.6854 7.73405 27.4026 8.39392L25 14Z" fill="#0B1F35"/>
</svg>
